<svg xmlns="http://www.w3.org/2000/svg" version="1.1" width="100%" stroke="blue" fill="white" viewBox="0 0 200 200"><path d="M0,100c0,-54.75779 44.38965,-99.14707 99.14707,-99.14707c23.0922,0 44.34102,7.89452 61.19374,21.13232c-12.83421,-7.14615 -27.61544,-11.21799 -43.34729,-11.21799c-49.28163,0 -89.23236,39.95063 -89.23236,89.23273c0,49.28163 39.95073,89.23236 89.23236,89.23236c15.73184,0 30.51307,-4.0711 43.34729,-11.21725c-16.85272,13.23735 -38.10153,21.13196 -61.19374,21.13196c-54.75742,0 -99.14707,-44.38965 -99.14707,-99.14707zM200,100c0,43.80595 -35.51198,79.31765 -79.31839,79.31765c-18.47373,0 -35.47244,-6.31561 -48.95472,-16.90559c10.26728,5.71693 22.09204,8.97384 34.67757,8.97384c39.42522,0 71.38572,-31.96059 71.38572,-71.38591c0,-39.42568 -31.9605,-71.38619 -71.38572,-71.38619c-12.58553,0 -24.41029,3.25728 -34.67757,8.97384c13.48227,-10.59007 30.48098,-16.90512 48.95472,-16.90512c43.80641,0 79.31839,35.51198 79.31839,79.31747zM105.12978,106.45388v-34.20006c0,-8.16389 6.61937,-14.89358 14.89358,-14.89358l23.38843,0.11032v43.79814h-14.45228v-29.34586h-5.18517c-2.31678,0 -4.19227,1.76516 -4.19227,4.08194v26.58778c0,2.4271 1.98581,4.41291 4.41291,4.41291h9.48776c6.39872,0 11.58389,5.18517 11.58389,11.58389v8.93615c0,8.38453 -6.72969,15.11422 -15.11422,15.11422h-23.16778v-14.45228h19.4168c2.4271,0 4.41291,-1.98581 4.41291,-4.52324v-2.20646h-10.48066c-8.27421,0 -15.0039,-6.72969 -15.0039,-15.0039zM69.93681,142.63975c-8.27421,0 -15.0039,-6.72969 -15.0039,-15.0039v-55.16138c0,-8.27421 6.72969,-15.0039 15.0039,-15.0039h27.36005v43.90846h-14.34196v-29.45618h-9.15679c-2.4271,0 -4.41291,1.98581 -4.41291,4.41291v47.43879c0,2.4271 1.98581,4.41291 4.41291,4.41291h23.60907v14.45228z" fill-rule="evenodd"></path></svg>